<svg xmlns="http://www.w3.org/2000/svg" viewBox="0 0 206.6 206.74"><defs><style>.cls-1{fill:#fff;}.cls-2{fill:#fd0404;}</style></defs><g id="Layer_2" data-name="Layer 2"><g id="Layer_1-2" data-name="Layer 1"><rect class="cls-1" width="206.6" height="206.74"/><path d="M63.52,81.38V72.75A11.15,11.15,0,0,1,74.65,61.62h9.94V47.29H74.65A25.49,25.49,0,0,0,49.2,72.75v8.63Z"/><path d="M122,61.62h9.94a11.14,11.14,0,0,1,11.13,11.13v8.63H157.4V72.75a25.49,25.49,0,0,0-25.46-25.46H122Z"/><path d="M84.59,145.13H74.65A11.15,11.15,0,0,1,63.52,134V122.75H49.2V134a25.49,25.49,0,0,0,25.45,25.46h9.94Z"/><path d="M143.07,122.75V134a11.15,11.15,0,0,1-11.13,11.14H122v14.32h9.94A25.49,25.49,0,0,0,157.4,134V122.75Z"/><path class="cls-2" d="M174.3,37.52c0,5.26-3.66,8.93-9,8.94a8.87,8.87,0,0,1-9.2-8.82,9,9,0,0,1,9.16-9.06A8.72,8.72,0,0,1,174.3,37.52Z"/><path d="M63.52,81.38V72.75A11.15,11.15,0,0,1,74.65,61.62h9.94V47.29H74.65A25.49,25.49,0,0,0,49.2,72.75v8.63Z"/><path d="M122,61.62h9.94a11.14,11.14,0,0,1,11.13,11.13v8.63H157.4V72.75a25.49,25.49,0,0,0-25.46-25.46H122Z"/><path d="M84.59,145.13H74.65A11.15,11.15,0,0,1,63.52,134V122.75H49.2V134a25.49,25.49,0,0,0,25.45,25.46h9.94Z"/><path d="M143.07,122.75V134a11.15,11.15,0,0,1-11.13,11.14H122v14.32h9.94A25.49,25.49,0,0,0,157.4,134V122.75Z"/><path class="cls-2" d="M174.3,37.52c0,5.26-3.66,8.93-9,8.94a8.87,8.87,0,0,1-9.2-8.82,9,9,0,0,1,9.16-9.06A8.72,8.72,0,0,1,174.3,37.52Z"/></g></g></svg>